<svg width="25" height="24" viewBox="0 0 25 24" fill="none" xmlns="http://www.w3.org/2000/svg">
<path d="M6.33594 7.91V16C6.33594 17.5913 6.96808 19.1174 8.0933 20.2426C9.21852 21.3679 10.7446 22 12.3359 22C13.9272 22 15.4534 21.3679 16.5786 20.2426C17.7038 19.1174 18.3359 17.5913 18.3359 16V6C18.3359 4.93913 17.9145 3.92172 17.1644 3.17157C16.4142 2.42143 15.3968 2 14.3359 2C13.2751 2 12.2577 2.42143 11.5075 3.17157C10.7574 3.92172 10.3359 4.93913 10.3359 6V15.182C10.3359 15.4446 10.3877 15.7047 10.4882 15.9474C10.5887 16.19 10.736 16.4105 10.9217 16.5962C11.1074 16.7819 11.3279 16.9292 11.5706 17.0298C11.8132 17.1303 12.0733 17.182 12.3359 17.182V17.182C12.8664 17.182 13.3751 16.9713 13.7502 16.5962C14.1252 16.2211 14.3359 15.7124 14.3359 15.182V8" stroke="#3A3A3A" stroke-width="2" stroke-linecap="round" stroke-linejoin="round"/>
</svg>
