<svg width="24" height="24" viewBox="0 0 24 24" fill="none" xmlns="http://www.w3.org/2000/svg">
<path d="M12.3954 18.2175L12.1654 20.5865C12.0744 21.5385 11.1854 22.1845 10.2874 21.9525C8.93635 21.6025 7.98735 20.3475 7.98735 18.9085V15.8735C7.98735 15.1985 7.98735 14.8605 7.84135 14.6135C7.75941 14.4736 7.64524 14.3553 7.50835 14.2685C7.26835 14.1175 6.94135 14.1175 6.28835 14.1175H5.89235C4.18935 14.1175 3.33835 14.1175 2.81435 13.7275C2.41855 13.4308 2.1419 13.0023 2.03435 12.5195C1.88835 11.8695 2.21535 11.0565 2.87035 9.4325L3.19735 8.6225C3.38535 8.1545 3.46235 7.6475 3.42235 7.1425C3.19035 4.2685 5.46935 1.8475 8.25535 2.0075L18.6794 2.6055C19.8184 2.6705 20.3874 2.7035 20.9014 3.1585C21.4164 3.6135 21.5134 4.0825 21.7064 5.0195C22.1173 7.01287 22.0986 9.07096 21.6514 11.0565C21.3684 12.3045 20.1764 12.9765 18.9454 12.8165C15.6814 12.3965 12.7224 14.8355 12.3954 18.2165V18.2175Z" stroke="#F44D4D" stroke-width="2" stroke-linecap="round" stroke-linejoin="round"/>
<path d="M17 12.5L17.137 12.043C18.024 9.087 17.977 5.928 17 3" stroke="#F44D4D" stroke-width="2" stroke-linecap="round" stroke-linejoin="round"/>
</svg>
