<svg width="24" height="24" viewBox="0 0 24 24" fill="none" xmlns="http://www.w3.org/2000/svg">
<path d="M11.6048 5.78239L11.8348 3.41339C11.9258 2.46139 12.8148 1.81539 13.7128 2.04739C15.0638 2.39739 16.0128 3.65239 16.0128 5.09139V8.12639C16.0128 8.80139 16.0128 9.13939 16.1588 9.38639C16.2418 9.52739 16.3558 9.64639 16.4918 9.73139C16.7318 9.88239 17.0588 9.88239 17.7118 9.88239H18.1078C19.8108 9.88239 20.6618 9.88239 21.1858 10.2724C21.5788 10.5654 21.8558 10.9944 21.9658 11.4804C22.1118 12.1304 21.7848 12.9434 21.1298 14.5674L20.8038 15.3774C20.6147 15.8465 20.5373 16.3532 20.5778 16.8574C20.8098 19.7314 18.5308 22.1524 15.7448 21.9934L5.32079 21.3944C4.18179 21.3294 3.61279 21.2964 3.09879 20.8414C2.58379 20.3864 2.48679 19.9174 2.29379 18.9804C1.88302 16.987 1.90177 14.929 2.34879 12.9434C2.63179 11.6954 3.82379 11.0234 5.05479 11.1834C8.31879 11.6034 11.2778 9.16439 11.6048 5.78339V5.78239Z" stroke="#F44D4D" stroke-width="2" stroke-linecap="round" stroke-linejoin="round"/>
<path d="M7.00027 11.5L6.86327 11.957C5.97637 14.9135 6.02422 18.0717 7.00027 21" stroke="#F44D4D" stroke-width="2" stroke-linecap="round" stroke-linejoin="round"/>
</svg>
