<svg width="121" height="44" viewBox="0 0 121 44" fill="none" xmlns="http://www.w3.org/2000/svg">
<path d="M8.31515 43.1062V38.2679H2.76508V43.1062H0V30.8438H2.76508V35.9583H8.31515V30.8438H11.0827V43.1062H8.31515Z" fill="#1C1C1C"/>
<path d="M13.7852 43.1062V30.8438H16.5527V43.1062H13.7852Z" fill="#1C1C1C"/>
<path d="M28.4163 32.0528L27.3486 34.345C26.0519 33.5759 24.5113 33.0856 23.5307 33.0856C22.6024 33.0856 21.9727 33.4166 21.9727 34.0812C21.9727 36.3385 28.5034 35.0767 28.486 39.4919C28.486 41.8911 26.4028 43.1853 23.69 43.1853C21.7172 43.1778 19.8069 42.4924 18.2793 41.244L19.3794 38.9841C20.6412 40.1041 22.4282 40.8234 23.7223 40.8234C24.8622 40.8234 25.5442 40.4028 25.5442 39.6511C25.5442 37.3365 19.0135 38.6855 19.0135 34.3425C19.0135 32.12 20.9224 30.7188 23.7597 30.7188C25.4063 30.7175 27.0201 31.1798 28.4163 32.0528Z" fill="#1C1C1C"/>
<path d="M35.7196 33.1907V43.1062H32.952V33.1907H29.2188V30.8438H39.4628V33.1907H35.7196Z" fill="#1C1C1C"/>
<path d="M52.5858 36.9721C52.5858 40.5087 49.751 43.224 46.0028 43.224C42.2547 43.224 39.4199 40.5261 39.4199 36.9721C39.4199 33.418 42.2547 30.75 46.0028 30.75C49.751 30.75 52.5858 33.4155 52.5858 36.9721ZM42.2547 36.9721C42.2487 37.982 42.6437 38.9531 43.353 39.6721C44.0622 40.3912 45.0277 40.7994 46.0377 40.8073C46.5341 40.8018 47.0245 40.698 47.4805 40.5018C47.9365 40.3056 48.3491 40.021 48.6944 39.6643C49.0397 39.3077 49.3109 38.8861 49.4923 38.424C49.6736 37.9619 49.7616 37.4684 49.751 36.9721C49.7599 36.4778 49.6706 35.9868 49.4882 35.5274C49.3058 35.068 49.0341 34.6493 48.6886 34.2958C48.3432 33.9422 47.931 33.6608 47.4759 33.4678C47.0208 33.2749 46.532 33.1742 46.0377 33.1716C45.5391 33.1703 45.0451 33.2678 44.5844 33.4586C44.1237 33.6493 43.7053 33.9295 43.3536 34.2828C43.0018 34.6362 42.7235 35.0559 42.5349 35.5175C42.3463 35.979 42.2511 36.4734 42.2547 36.9721Z" fill="#1C1C1C"/>
<path d="M60.0004 39.5994H57.1806V43.1062H54.4155V30.8438H59.7391C62.9422 30.8438 64.7541 32.3868 64.7541 35.0996C64.7541 36.9911 63.9477 38.3575 62.4594 39.0569L65.0801 43.1062H61.9442L60.0004 39.5994ZM59.7516 37.2898C61.2747 37.2898 62.1508 36.588 62.1508 35.1867C62.1508 33.7855 61.2697 33.1509 59.7391 33.1509H57.1806V37.2898H59.7516Z" fill="#1C1C1C"/>
<path d="M72.8769 43.1062H70.1118V39.2161L65.5771 30.8438H68.3596L71.4956 36.3416L74.5593 30.8438H77.3443L72.8644 39.144L72.8769 43.1062Z" fill="#1C1C1C"/>
<path d="M80.6828 41.8607C80.6828 42.2184 80.5406 42.5615 80.2877 42.8145C80.0347 43.0675 79.6916 43.2096 79.3338 43.2096C78.9761 43.2096 78.6329 43.0675 78.38 42.8145C78.127 42.5615 77.9849 42.2184 77.9849 41.8607C77.9849 41.5029 78.127 41.1598 78.38 40.9068C78.6329 40.6538 78.9761 40.5117 79.3338 40.5117C79.6916 40.5117 80.0347 40.6538 80.2877 40.9068C80.5406 41.1598 80.6828 41.5029 80.6828 41.8607Z" fill="#1C1C1C"/>
<path d="M95.0375 36.9721C95.0375 40.5087 92.2027 43.224 88.4521 43.224C84.7014 43.224 81.8691 40.5261 81.8691 36.9721C81.8691 33.418 84.7064 30.75 88.4521 30.75C92.1977 30.75 95.0375 33.4155 95.0375 36.9721ZM84.7064 36.9721C84.7004 37.982 85.0954 38.9531 85.8047 39.6721C86.5139 40.3912 87.4795 40.7994 88.4894 40.8073C88.9858 40.8018 89.4762 40.698 89.9322 40.5018C90.3882 40.3056 90.8008 40.021 91.1461 39.6643C91.4915 39.3077 91.7626 38.8861 91.944 38.424C92.1253 37.9619 92.2133 37.4684 92.2027 36.9721C92.2116 36.4778 92.1223 35.9868 91.9399 35.5274C91.7576 35.068 91.4857 34.6493 91.1403 34.2958C90.7949 33.9422 90.3827 33.6608 89.9276 33.4678C89.4725 33.2749 88.9837 33.1742 88.4894 33.1716C87.9908 33.1703 87.4968 33.2678 87.0361 33.4586C86.5754 33.6493 86.1571 33.9295 85.8053 34.2828C85.4535 34.6362 85.1753 35.0559 84.9866 35.5175C84.798 35.979 84.7028 36.4734 84.7064 36.9721Z" fill="#1C1C1C"/>
<path d="M102.452 39.5994H99.6324V43.1062H96.8599V30.8438H102.183C105.387 30.8438 107.208 32.3868 107.208 35.0996C107.208 36.9911 106.402 38.3575 104.914 39.0569L107.532 43.1062H104.396L102.452 39.5994ZM102.203 37.2898C103.727 37.2898 104.603 36.588 104.603 35.1867C104.603 33.7855 103.727 33.1384 102.203 33.1384H99.6448V37.2898H102.203Z" fill="#1C1C1C"/>
<path d="M120.179 36.9198V41.6286C118.713 42.6379 116.981 43.1928 115.202 43.224C111.491 43.224 108.673 40.5261 108.673 36.9721C108.673 33.418 111.543 30.75 115.361 30.75C117.159 30.7557 118.899 31.3876 120.281 32.537L118.723 34.528C117.809 33.6741 116.614 33.1837 115.363 33.1492C114.858 33.1395 114.355 33.2314 113.886 33.4194C113.416 33.6074 112.989 33.8877 112.63 34.2437C112.271 34.5997 111.986 35.0242 111.794 35.4919C111.602 35.9597 111.506 36.4613 111.511 36.9671C111.506 37.4751 111.602 37.979 111.796 38.4489C111.989 38.9188 112.274 39.3452 112.635 39.7028C112.996 40.0604 113.425 40.342 113.896 40.5308C114.368 40.7197 114.873 40.812 115.381 40.8024C116.22 40.7633 117.041 40.5353 117.78 40.1353V36.9198H120.179Z" fill="#1C1C1C"/>
<path d="M45.9238 34.6484L46.775 36.2064L48.333 37.0576L46.775 37.9088L45.9238 39.4668L45.0727 37.9088L43.5146 37.0576L45.0727 36.2064L45.9238 34.6484Z" fill="#E76F51"/>
<path d="M88.5322 34.5625L89.3834 36.1205L90.9414 36.9717L89.3834 37.8229L88.5322 39.3809L87.6811 37.8229L86.123 36.9717L87.6811 36.1205L88.5322 34.5625Z" fill="#E76F51"/>
<path d="M25.5181 28.0074V19.7421L22.2627 26.763H20.4583L17.203 19.7421V28.0074H14.6992V15.75H17.7978L21.3693 23.2463L24.9233 15.75H28.0045V28.0074H25.5181Z" fill="#E76F51"/>
<path d="M33.4971 18.0447V20.7052H39.4155V22.9999H33.4971V25.7128H40.2567V28.0074H30.7295V15.75H40.0626V18.0447H33.4971Z" fill="#E76F51"/>
<path d="M48.0175 24.5057H45.2002V28.0074H42.4326V15.75H47.7562C50.9618 15.75 52.7811 17.2906 52.7811 20.0034C52.7811 21.8974 51.9772 23.2613 50.4889 23.9631L53.0972 28.0074H49.9638L48.0175 24.5057ZM47.7562 22.1936C49.2794 22.1936 50.1554 21.4942 50.1554 20.093C50.1554 18.6918 49.2794 18.0447 47.7562 18.0447H45.2002V22.1936H47.7562Z" fill="#E76F51"/>
<path d="M55.1177 28.0074V15.75H57.8852V28.0074H55.1177Z" fill="#E76F51"/>
<path d="M71.1011 17.6949L69.4784 19.6462C68.6397 18.683 67.4301 18.0533 66.2927 18.0533C65.7979 18.0469 65.3069 18.1401 64.8489 18.3275C64.3909 18.5148 63.9754 18.7925 63.627 19.1439C63.2786 19.4953 63.0045 19.9132 62.8211 20.3728C62.6377 20.8324 62.5487 21.3242 62.5595 21.8189C62.5488 22.3143 62.6377 22.8068 62.8209 23.2672C63.0042 23.7276 63.278 24.1465 63.6262 24.4991C63.9743 24.8517 64.3898 25.1308 64.8478 25.3198C65.3059 25.5088 65.7972 25.6039 66.2927 25.5994C67.3953 25.5994 68.6048 25.0395 69.4784 24.1634L71.1011 25.9429C69.8044 27.2719 67.9304 28.1306 66.1459 28.1306C62.4848 28.1306 59.7197 25.4153 59.7197 21.8612C59.7197 18.3072 62.5445 15.6641 66.2579 15.6641C68.0753 15.6835 69.8133 16.4123 71.1011 17.6949Z" fill="#E76F51"/>
<path d="M94.5131 28.0074L88.5797 20.1428V28.0074H85.9341V15.75H88.4553L94.411 23.6271V15.75H97.0367V28.0074H94.5131Z" fill="#E76F51"/>
<path d="M77.9007 18.6047L74.048 27.9528H71.1934L76.517 15.6953H79.3716L84.5982 27.9528H81.6365L80.6758 25.571L77.9007 18.6047Z" fill="#E76F51"/>
<path d="M77.8999 23.2812L78.7511 24.8393L80.3091 25.6904L78.7511 26.5441L77.8999 28.0996L77.0462 26.5441L75.4907 25.6904L77.0462 24.8393L77.8999 23.2812Z" fill="#E76F51"/>
<path d="M6.70737 18.6495L2.85468 28.0074H0L5.32359 15.75H8.17827L13.4048 28.0074H10.4431L9.49236 25.6182L6.70737 18.6495Z" fill="#E76F51"/>
<path d="M6.70752 23.3398L7.5587 24.8978L9.1167 25.749L7.5587 26.6027L6.70752 28.1582L5.85634 26.6027L4.29834 25.749L5.85634 24.8978L6.70752 23.3398Z" fill="#E76F51"/>
<path d="M5.63718 0.863281C8.33507 0.863281 10.015 2.03552 10.015 3.92702C10.0344 4.55481 9.83307 5.16953 9.44611 5.66427C9.05914 6.159 8.51101 6.50244 7.89703 6.63486C8.6284 6.74513 9.29345 7.12113 9.765 7.69095C10.2366 8.26076 10.4815 8.9844 10.4531 9.72349C10.4531 11.8241 8.6835 13.1207 5.83131 13.1207H0V0.863281H5.63718ZM2.76508 5.8011H5.50279C6.53565 5.8011 7.18274 5.30334 7.18274 4.43474C7.18274 3.56614 6.53565 3.12313 5.50279 3.12313H2.76508V5.8011ZM2.76508 10.8609H5.50279C6.81688 10.8609 7.60335 10.3183 7.60335 9.36759C7.60335 8.4741 6.81688 7.93154 5.50279 7.93154H2.76508V10.8609Z" fill="#1C1C1C"/>
<path d="M20.4926 10.7041V13.1207H12.4736V0.863281H15.2387V10.7041H20.4926Z" fill="#1C1C1C"/>
<path d="M28.3483 3.77271L24.4956 13.1207H21.6533L26.9645 0.863281H29.8191L35.0457 13.1207H32.1064L31.1432 10.7389L28.3483 3.77271Z" fill="#1C1C1C"/>
<path d="M45.6678 2.80822L44.0525 4.76941C43.2138 3.80624 42.0042 3.17408 40.8668 3.17408C40.372 3.16761 39.881 3.26084 39.423 3.4482C38.9651 3.63556 38.5495 3.91322 38.2011 4.26462C37.8527 4.61603 37.5787 5.03398 37.3953 5.49356C37.2118 5.95315 37.1229 6.44496 37.1336 6.93967C37.1226 7.43528 37.2112 7.92805 37.3943 8.38873C37.5774 8.84942 37.8512 9.26863 38.1994 9.62148C38.5476 9.97433 38.9631 10.2536 39.4213 10.4428C39.8796 10.632 40.3711 10.7271 40.8668 10.7227C41.9694 10.7227 43.1765 10.1627 44.0525 9.28663L45.6802 11.0537C44.386 12.3852 42.5119 13.2439 40.725 13.2439C37.0664 13.2439 34.2988 10.531 34.2988 6.97451C34.2988 3.41798 37.1236 0.777344 40.8345 0.777344C42.6485 0.799371 44.3824 1.52794 45.6678 2.80822Z" fill="#1C1C1C"/>
<path d="M50.1049 0.863281H47.3398V13.1207H50.1049V10.0918" fill="#1C1C1C"/>
<path d="M43.4771 9.78439L54.4179 0.777344H57.9545L45.0799 11.6087" fill="#1C1C1C"/>
<path d="M55.745 12.9353H58.1642L51.1308 5.35938L49.1621 6.90742L54.966 12.9353H55.745Z" fill="#1C1C1C"/>
<path d="M28.3477 8.45312L29.1988 10.0111L30.7568 10.8623L29.1988 11.7135L28.3477 13.2715L27.4965 11.7135L25.9385 10.8623L27.4965 10.0111L28.3477 8.45312Z" fill="#E76F51"/>
</svg>
