<svg width="49" height="48" viewBox="0 0 49 48" fill="none" xmlns="http://www.w3.org/2000/svg">
<path d="M24.334 22H18.334M24.334 16V22V16ZM24.334 22V28V22ZM24.334 22H30.334H24.334Z" stroke="#2F80ED" stroke-width="4" stroke-linecap="round" stroke-linejoin="round"/>
<path d="M28.334 38C35.876 38 39.648 38 41.99 35.656C44.334 33.314 44.334 29.542 44.334 22C44.334 14.458 44.334 10.686 41.99 8.344C39.648 6 35.876 6 28.334 6H20.334C12.792 6 9.01998 6 6.67798 8.344C4.33398 10.686 4.33398 14.458 4.33398 22C4.33398 29.542 4.33398 33.314 6.67798 35.656C7.98398 36.964 9.73398 37.542 12.334 37.796" stroke="#2F80ED" stroke-width="4" stroke-linecap="round" stroke-linejoin="round"/>
<path d="M28.3345 38C25.8625 38 23.1385 39 20.6525 40.29C16.6565 42.364 14.6585 43.402 13.6745 42.74C12.6905 42.08 12.8765 40.03 13.2505 35.932L13.3345 35" stroke="#2F80ED" stroke-width="4" stroke-linecap="round" stroke-linejoin="round"/>
</svg>
