<svg width="49" height="48" viewBox="0 0 49 48" fill="none" xmlns="http://www.w3.org/2000/svg">
<path d="M23.5436 11.5648L24.0036 6.82678C24.1856 4.92278 25.9636 3.63078 27.7596 4.09478C30.4616 4.79478 32.3596 7.30478 32.3596 10.1828V16.2528C32.3596 17.6028 32.3596 18.2788 32.6516 18.7728C32.8176 19.0548 33.0456 19.2928 33.3176 19.4628C33.7976 19.7648 34.4516 19.7648 35.7576 19.7648H36.5496C39.9556 19.7648 41.6576 19.7648 42.7056 20.5448C43.4916 21.1308 44.0456 21.9888 44.2656 22.9608C44.5576 24.2608 43.9036 25.8868 42.5936 29.1348L41.9416 30.7548C41.5634 31.693 41.4086 32.7064 41.4896 33.7148C41.9536 39.4628 37.3956 44.3048 31.8236 43.9868L10.9756 42.7888C8.69756 42.6588 7.55956 42.5928 6.53156 41.6828C5.50156 40.7728 5.30756 39.8348 4.92156 37.9608C4.10002 33.974 4.13752 29.8579 5.03156 25.8868C5.59756 23.3908 7.98156 22.0468 10.4436 22.3668C16.9716 23.2068 22.8896 18.3288 23.5436 11.5668V11.5648Z" stroke="#27AE60" stroke-width="4" stroke-linecap="round" stroke-linejoin="round"/>
<path d="M14.3345 23L14.0605 23.914C12.2867 29.827 12.3824 36.1435 14.3345 42" stroke="#27AE60" stroke-width="4" stroke-linecap="round" stroke-linejoin="round"/>
</svg>
