<svg width="49" height="48" viewBox="0 0 49 48" fill="none" xmlns="http://www.w3.org/2000/svg">
<path d="M28.3359 38C35.8779 38 39.6499 38 41.9919 35.656C44.3359 33.314 44.3359 29.542 44.3359 22C44.3359 14.458 44.3359 10.686 41.9919 8.344C39.6499 6 35.8779 6 28.3359 6H20.3359C12.7939 6 9.02194 6 6.67994 8.344C4.33594 10.686 4.33594 14.458 4.33594 22C4.33594 29.542 4.33594 33.314 6.67994 35.656C7.98594 36.964 9.73594 37.542 12.3359 37.796" stroke="#EB5757" stroke-width="4" stroke-linecap="round" stroke-linejoin="round"/>
<path d="M30.7509 13.5866C30.5647 13.4001 30.3434 13.2523 30.0998 13.1516C29.8563 13.051 29.5952 12.9994 29.3317 13C29.0681 13.0006 28.8073 13.0532 28.5642 13.1549C28.321 13.2566 28.1004 13.4053 27.9149 13.5926L18.8149 22.7866C18.264 23.343 17.8885 24.0488 17.7349 24.8166L17.3749 26.6086C17.3102 26.9316 17.3263 27.2655 17.4216 27.5808C17.517 27.8961 17.6888 28.1829 17.9217 28.4158C18.1546 28.6487 18.4415 28.8205 18.7567 28.9159C19.072 29.0113 19.406 29.0273 19.7289 28.9626L21.5209 28.6026C22.2887 28.449 22.9946 28.0735 23.5509 27.5226L32.7449 18.4226C32.9322 18.2371 33.0809 18.0165 33.1826 17.7734C33.2843 17.5302 33.337 17.2694 33.3375 17.0058C33.3381 16.7423 33.2865 16.4812 33.1859 16.2377C33.0852 15.9941 32.9374 15.7728 32.7509 15.5866L30.7509 13.5866V13.5866Z" stroke="#EB5757" stroke-width="4" stroke-linecap="round" stroke-linejoin="round"/>
<path d="M25.3359 19L27.3359 21" stroke="#EB5757" stroke-width="4" stroke-linecap="round" stroke-linejoin="round"/>
<path d="M28.3345 38C25.8625 38 23.1385 39 20.6525 40.29C16.6565 42.364 14.6585 43.402 13.6745 42.74C12.6905 42.08 12.8765 40.03 13.2505 35.932L13.3345 35" stroke="#EB5757" stroke-width="4" stroke-linecap="round" stroke-linejoin="round"/>
</svg>
