<svg width="316" height="185" viewBox="0 0 316 185" fill="none" xmlns="http://www.w3.org/2000/svg">
<rect x="0.5" y="0.203125" width="315" height="184" rx="30" fill="url(#paint0_linear)"/>
<mask id="mask0" style="mask-type:alpha" maskUnits="userSpaceOnUse" x="0" y="0" width="316" height="185">
<rect x="0.5" y="0.203125" width="315" height="184" rx="30" fill="#ED713C"/>
</mask>
<g mask="url(#mask0)">
<ellipse opacity="0.1" cx="25" cy="213.203" rx="160.5" ry="113" fill="black"/>
<ellipse opacity="0.08" cx="291" cy="-28.7969" rx="160.5" ry="113" fill="black"/>
<path d="M30.5 86.9297H130.331" stroke="white"/>
</g>
<path d="M241.267 120.273C240.52 120.273 239.853 120.072 239.265 119.671C238.686 119.26 238.234 118.682 237.907 117.935C237.59 117.188 237.431 116.311 237.431 115.303C237.431 114.295 237.59 113.418 237.907 112.671C238.234 111.924 238.686 111.35 239.265 110.949C239.853 110.538 240.52 110.333 241.267 110.333C242.014 110.333 242.676 110.538 243.255 110.949C243.843 111.35 244.296 111.924 244.613 112.671C244.94 113.418 245.103 114.295 245.103 115.303C245.103 116.311 244.94 117.188 244.613 117.935C244.296 118.682 243.843 119.26 243.255 119.671C242.676 120.072 242.014 120.273 241.267 120.273ZM241.267 119.615C241.883 119.615 242.424 119.447 242.891 119.111C243.367 118.766 243.736 118.271 243.997 117.627C244.258 116.974 244.389 116.199 244.389 115.303C244.389 114.407 244.258 113.637 243.997 112.993C243.736 112.34 243.367 111.845 242.891 111.509C242.424 111.164 241.883 110.991 241.267 110.991C240.651 110.991 240.105 111.164 239.629 111.509C239.162 111.845 238.798 112.34 238.537 112.993C238.276 113.637 238.145 114.407 238.145 115.303C238.145 116.199 238.276 116.974 238.537 117.627C238.798 118.271 239.162 118.766 239.629 119.111C240.105 119.447 240.651 119.615 241.267 119.615ZM250.1 110.333C251.369 110.333 252.34 110.767 253.012 111.635C253.693 112.494 254.034 113.698 254.034 115.247C254.034 116.33 253.852 117.249 253.488 118.005C253.133 118.752 252.629 119.316 251.976 119.699C251.323 120.082 250.557 120.273 249.68 120.273C248.756 120.273 248.014 120.105 247.454 119.769L247.748 119.195C248.215 119.494 248.859 119.643 249.68 119.643C250.809 119.643 251.696 119.279 252.34 118.551C252.993 117.814 253.32 116.75 253.32 115.359C253.32 114.93 253.292 114.538 253.236 114.183C253.04 114.818 252.657 115.312 252.088 115.667C251.528 116.022 250.87 116.199 250.114 116.199C249.47 116.199 248.896 116.082 248.392 115.849C247.897 115.606 247.515 115.266 247.244 114.827C246.973 114.379 246.838 113.866 246.838 113.287C246.838 112.699 246.978 112.181 247.258 111.733C247.538 111.285 247.925 110.94 248.42 110.697C248.915 110.454 249.475 110.333 250.1 110.333ZM250.212 115.583C250.735 115.583 251.201 115.48 251.612 115.275C252.032 115.07 252.354 114.79 252.578 114.435C252.811 114.08 252.928 113.684 252.928 113.245C252.928 112.853 252.816 112.48 252.592 112.125C252.377 111.77 252.06 111.486 251.64 111.271C251.22 111.056 250.716 110.949 250.128 110.949C249.363 110.949 248.742 111.164 248.266 111.593C247.79 112.013 247.552 112.573 247.552 113.273C247.552 113.973 247.79 114.533 248.266 114.953C248.742 115.373 249.391 115.583 250.212 115.583ZM263.692 108.415H264.336L259.716 121.603H259.072L263.692 108.415ZM275.782 119.559V120.203H269.048V119.699L273.192 115.583C273.733 115.042 274.097 114.58 274.284 114.197C274.48 113.805 274.578 113.404 274.578 112.993C274.578 112.368 274.363 111.878 273.934 111.523C273.514 111.168 272.902 110.991 272.1 110.991C271.484 110.991 270.942 111.084 270.476 111.271C270.018 111.458 269.622 111.742 269.286 112.125L268.782 111.677C269.155 111.248 269.626 110.916 270.196 110.683C270.774 110.45 271.428 110.333 272.156 110.333C273.117 110.333 273.882 110.566 274.452 111.033C275.021 111.5 275.306 112.13 275.306 112.923C275.306 113.427 275.194 113.908 274.97 114.365C274.746 114.822 274.326 115.354 273.71 115.961L270.098 119.559H275.782ZM280.026 114.505C281.454 114.505 282.49 114.757 283.134 115.261C283.778 115.756 284.1 116.46 284.1 117.375C284.1 117.935 283.97 118.434 283.708 118.873C283.456 119.302 283.074 119.643 282.56 119.895C282.047 120.147 281.417 120.273 280.67 120.273C279.961 120.273 279.294 120.152 278.668 119.909C278.052 119.666 277.572 119.349 277.226 118.957L277.59 118.411C277.898 118.766 278.323 119.055 278.864 119.279C279.415 119.503 280.012 119.615 280.656 119.615C281.534 119.615 282.206 119.414 282.672 119.013C283.148 118.612 283.386 118.075 283.386 117.403C283.386 116.666 283.116 116.106 282.574 115.723C282.042 115.34 281.142 115.149 279.872 115.149H277.884L278.402 110.403H283.596V111.047H279.004L278.626 114.505H280.026Z" fill="white"/>
<path d="M235.669 127.203H285.5" stroke="white"/>
<path d="M251.321 150.273C250.36 150.273 249.492 150.058 248.717 149.629C247.952 149.2 247.345 148.607 246.897 147.851C246.459 147.095 246.239 146.246 246.239 145.303C246.239 144.36 246.459 143.511 246.897 142.755C247.345 141.999 247.952 141.406 248.717 140.977C249.492 140.548 250.36 140.333 251.321 140.333C252.031 140.333 252.684 140.45 253.281 140.683C253.879 140.907 254.387 141.243 254.807 141.691L254.359 142.153C253.575 141.378 252.572 140.991 251.349 140.991C250.528 140.991 249.781 141.178 249.109 141.551C248.437 141.924 247.91 142.442 247.527 143.105C247.145 143.758 246.953 144.491 246.953 145.303C246.953 146.115 247.145 146.852 247.527 147.515C247.91 148.168 248.437 148.682 249.109 149.055C249.781 149.428 250.528 149.615 251.349 149.615C252.563 149.615 253.566 149.223 254.359 148.439L254.807 148.901C254.387 149.349 253.874 149.69 253.267 149.923C252.67 150.156 252.021 150.273 251.321 150.273ZM265.402 140.403L261.034 150.203H260.32L255.952 140.403H256.736L260.698 149.279L264.66 140.403H265.402ZM271.53 150.273C270.569 150.273 269.701 150.058 268.926 149.629C268.161 149.2 267.554 148.607 267.106 147.851C266.668 147.095 266.448 146.246 266.448 145.303C266.448 144.36 266.668 143.511 267.106 142.755C267.554 141.999 268.161 141.406 268.926 140.977C269.701 140.548 270.569 140.333 271.53 140.333C272.24 140.333 272.893 140.45 273.49 140.683C274.088 140.907 274.596 141.243 275.016 141.691L274.568 142.153C273.784 141.378 272.781 140.991 271.558 140.991C270.737 140.991 269.99 141.178 269.318 141.551C268.646 141.924 268.119 142.442 267.736 143.105C267.354 143.758 267.162 144.491 267.162 145.303C267.162 146.115 267.354 146.852 267.736 147.515C268.119 148.168 268.646 148.682 269.318 149.055C269.99 149.428 270.737 149.615 271.558 149.615C272.772 149.615 273.775 149.223 274.568 148.439L275.016 148.901C274.596 149.349 274.083 149.69 273.476 149.923C272.879 150.156 272.23 150.273 271.53 150.273Z" fill="white"/>
<path d="M235.669 157.203H285.5" stroke="white"/>
<path d="M33.664 114.505C35.092 114.505 36.128 114.757 36.772 115.261C37.416 115.756 37.738 116.46 37.738 117.375C37.738 117.935 37.6073 118.434 37.346 118.873C37.094 119.302 36.7113 119.643 36.198 119.895C35.6847 120.147 35.0547 120.273 34.308 120.273C33.5987 120.273 32.9313 120.152 32.306 119.909C31.69 119.666 31.2093 119.349 30.864 118.957L31.228 118.411C31.536 118.766 31.9607 119.055 32.502 119.279C33.0527 119.503 33.65 119.615 34.294 119.615C35.1713 119.615 35.8433 119.414 36.31 119.013C36.786 118.612 37.024 118.075 37.024 117.403C37.024 116.666 36.7533 116.106 36.212 115.723C35.68 115.34 34.7793 115.149 33.51 115.149H31.522L32.04 110.403H37.234V111.047H32.642L32.264 114.505H33.664ZM46.0463 119.559V120.203H39.3123V119.699L43.4563 115.583C43.9976 115.042 44.3616 114.58 44.5483 114.197C44.7443 113.805 44.8423 113.404 44.8423 112.993C44.8423 112.368 44.6276 111.878 44.1983 111.523C43.7783 111.168 43.1669 110.991 42.3643 110.991C41.7483 110.991 41.2069 111.084 40.7403 111.271C40.2829 111.458 39.8863 111.742 39.5503 112.125L39.0463 111.677C39.4196 111.248 39.8909 110.916 40.4603 110.683C41.0389 110.45 41.6923 110.333 42.4203 110.333C43.3816 110.333 44.1469 110.566 44.7163 111.033C45.2856 111.5 45.5703 112.13 45.5703 112.923C45.5703 113.427 45.4583 113.908 45.2343 114.365C45.0103 114.822 44.5903 115.354 43.9743 115.961L40.3623 119.559H46.0463ZM53.147 115.079C53.819 115.256 54.337 115.555 54.701 115.975C55.0743 116.395 55.261 116.908 55.261 117.515C55.261 118.374 54.9296 119.05 54.267 119.545C53.6043 120.03 52.6943 120.273 51.537 120.273C50.389 120.273 49.4836 120.03 48.821 119.545C48.1676 119.05 47.841 118.374 47.841 117.515C47.841 116.899 48.0183 116.386 48.373 115.975C48.737 115.555 49.255 115.256 49.927 115.079C49.367 114.892 48.9376 114.612 48.639 114.239C48.3403 113.866 48.191 113.408 48.191 112.867C48.191 112.083 48.4943 111.467 49.101 111.019C49.7076 110.562 50.5196 110.333 51.537 110.333C52.5543 110.333 53.371 110.562 53.987 111.019C54.603 111.476 54.911 112.092 54.911 112.867C54.911 113.399 54.757 113.856 54.449 114.239C54.1503 114.612 53.7163 114.892 53.147 115.079ZM48.905 112.881C48.905 113.469 49.1336 113.936 49.591 114.281C50.0576 114.626 50.7063 114.799 51.537 114.799C52.3676 114.799 53.0163 114.631 53.483 114.295C53.959 113.95 54.197 113.483 54.197 112.895C54.197 112.298 53.9543 111.826 53.469 111.481C52.993 111.126 52.349 110.949 51.537 110.949C50.725 110.949 50.081 111.122 49.605 111.467C49.1383 111.812 48.905 112.284 48.905 112.881ZM51.537 119.657C52.4796 119.657 53.217 119.466 53.749 119.083C54.281 118.7 54.547 118.178 54.547 117.515C54.547 116.862 54.281 116.344 53.749 115.961C53.217 115.578 52.4796 115.387 51.537 115.387C50.6036 115.387 49.871 115.578 49.339 115.961C48.8163 116.344 48.555 116.862 48.555 117.515C48.555 118.178 48.8163 118.7 49.339 119.083C49.8616 119.466 50.5943 119.657 51.537 119.657ZM63.7807 119.559V120.203H57.0467V119.699L61.1907 115.583C61.732 115.042 62.096 114.58 62.2827 114.197C62.4787 113.805 62.5767 113.404 62.5767 112.993C62.5767 112.368 62.362 111.878 61.9327 111.523C61.5127 111.168 60.9013 110.991 60.0987 110.991C59.4827 110.991 58.9413 111.084 58.4747 111.271C58.0173 111.458 57.6207 111.742 57.2847 112.125L56.7807 111.677C57.154 111.248 57.6253 110.916 58.1947 110.683C58.7733 110.45 59.4267 110.333 60.1547 110.333C61.116 110.333 61.8813 110.566 62.4507 111.033C63.02 111.5 63.3047 112.13 63.3047 112.923C63.3047 113.427 63.1927 113.908 62.9687 114.365C62.7447 114.822 62.3247 115.354 61.7087 115.961L58.0967 119.559H63.7807ZM76.8047 114.673C77.8874 114.701 78.7087 114.967 79.2687 115.471C79.8381 115.966 80.1227 116.624 80.1227 117.445C80.1227 117.996 79.9921 118.486 79.7307 118.915C79.4694 119.335 79.0774 119.666 78.5547 119.909C78.0414 120.152 77.4207 120.273 76.6927 120.273C75.9834 120.273 75.3161 120.156 74.6907 119.923C74.0654 119.68 73.5801 119.358 73.2347 118.957L73.5987 118.411C73.9161 118.766 74.3454 119.055 74.8867 119.279C75.4374 119.503 76.0394 119.615 76.6927 119.615C77.5607 119.615 78.2281 119.424 78.6947 119.041C79.1614 118.649 79.3947 118.117 79.3947 117.445C79.3947 116.764 79.1567 116.232 78.6807 115.849C78.2047 115.466 77.4907 115.275 76.5387 115.275H75.9227V114.757L78.8207 111.047H73.5987V110.403H79.7447V110.907L76.8047 114.673ZM90.3054 117.487H88.2474V120.203H87.5474V117.487H81.9614V116.969L87.2814 110.403H88.0794L82.8574 116.857H87.5614V114.463H88.2474V116.857H90.3054V117.487ZM94.1288 114.505C95.5568 114.505 96.5928 114.757 97.2368 115.261C97.8808 115.756 98.2028 116.46 98.2028 117.375C98.2028 117.935 98.0722 118.434 97.8108 118.873C97.5588 119.302 97.1762 119.643 96.6628 119.895C96.1495 120.147 95.5195 120.273 94.7728 120.273C94.0635 120.273 93.3962 120.152 92.7708 119.909C92.1548 119.666 91.6742 119.349 91.3288 118.957L91.6928 118.411C92.0008 118.766 92.4255 119.055 92.9668 119.279C93.5175 119.503 94.1148 119.615 94.7588 119.615C95.6362 119.615 96.3082 119.414 96.7748 119.013C97.2508 118.612 97.4888 118.075 97.4888 117.403C97.4888 116.666 97.2182 116.106 96.6768 115.723C96.1448 115.34 95.2442 115.149 93.9748 115.149H91.9868L92.5048 110.403H97.6988V111.047H93.1068L92.7288 114.505H94.1288ZM103.961 114.407C104.605 114.407 105.175 114.528 105.669 114.771C106.173 115.004 106.561 115.345 106.831 115.793C107.102 116.232 107.237 116.74 107.237 117.319C107.237 117.907 107.097 118.425 106.817 118.873C106.537 119.321 106.15 119.666 105.655 119.909C105.161 120.152 104.601 120.273 103.975 120.273C102.706 120.273 101.731 119.844 101.049 118.985C100.377 118.117 100.041 116.908 100.041 115.359C100.041 114.276 100.219 113.362 100.573 112.615C100.937 111.859 101.446 111.29 102.099 110.907C102.753 110.524 103.518 110.333 104.395 110.333C105.319 110.333 106.061 110.501 106.621 110.837L106.327 111.411C105.861 111.112 105.217 110.963 104.395 110.963C103.266 110.963 102.375 111.332 101.721 112.069C101.077 112.797 100.755 113.856 100.755 115.247C100.755 115.676 100.783 116.068 100.839 116.423C101.035 115.788 101.413 115.294 101.973 114.939C102.543 114.584 103.205 114.407 103.961 114.407ZM103.947 119.657C104.713 119.657 105.333 119.447 105.809 119.027C106.285 118.598 106.523 118.033 106.523 117.333C106.523 116.633 106.285 116.073 105.809 115.653C105.333 115.233 104.685 115.023 103.863 115.023C103.341 115.023 102.869 115.126 102.449 115.331C102.039 115.536 101.717 115.816 101.483 116.171C101.259 116.526 101.147 116.922 101.147 117.361C101.147 117.753 101.255 118.126 101.469 118.481C101.693 118.836 102.015 119.12 102.435 119.335C102.855 119.55 103.359 119.657 103.947 119.657ZM123.889 110.403V110.907L119.675 120.203H118.891L123.063 111.047H117.561V112.923H116.861V110.403H123.889ZM130.78 115.079C131.452 115.256 131.97 115.555 132.334 115.975C132.707 116.395 132.894 116.908 132.894 117.515C132.894 118.374 132.562 119.05 131.9 119.545C131.237 120.03 130.327 120.273 129.17 120.273C128.022 120.273 127.116 120.03 126.454 119.545C125.8 119.05 125.474 118.374 125.474 117.515C125.474 116.899 125.651 116.386 126.006 115.975C126.37 115.555 126.888 115.256 127.56 115.079C127 114.892 126.57 114.612 126.272 114.239C125.973 113.866 125.824 113.408 125.824 112.867C125.824 112.083 126.127 111.467 126.734 111.019C127.34 110.562 128.152 110.333 129.17 110.333C130.187 110.333 131.004 110.562 131.62 111.019C132.236 111.476 132.544 112.092 132.544 112.867C132.544 113.399 132.39 113.856 132.082 114.239C131.783 114.612 131.349 114.892 130.78 115.079ZM126.538 112.881C126.538 113.469 126.766 113.936 127.224 114.281C127.69 114.626 128.339 114.799 129.17 114.799C130 114.799 130.649 114.631 131.116 114.295C131.592 113.95 131.83 113.483 131.83 112.895C131.83 112.298 131.587 111.826 131.102 111.481C130.626 111.126 129.982 110.949 129.17 110.949C128.358 110.949 127.714 111.122 127.238 111.467C126.771 111.812 126.538 112.284 126.538 112.881ZM129.17 119.657C130.112 119.657 130.85 119.466 131.382 119.083C131.914 118.7 132.18 118.178 132.18 117.515C132.18 116.862 131.914 116.344 131.382 115.961C130.85 115.578 130.112 115.387 129.17 115.387C128.236 115.387 127.504 115.578 126.972 115.961C126.449 116.344 126.188 116.862 126.188 117.515C126.188 118.178 126.449 118.7 126.972 119.083C127.494 119.466 128.227 119.657 129.17 119.657ZM137.829 110.333C139.099 110.333 140.069 110.767 140.741 111.635C141.423 112.494 141.763 113.698 141.763 115.247C141.763 116.33 141.581 117.249 141.217 118.005C140.863 118.752 140.359 119.316 139.705 119.699C139.052 120.082 138.287 120.273 137.409 120.273C136.485 120.273 135.743 120.105 135.183 119.769L135.477 119.195C135.944 119.494 136.588 119.643 137.409 119.643C138.539 119.643 139.425 119.279 140.069 118.551C140.723 117.814 141.049 116.75 141.049 115.359C141.049 114.93 141.021 114.538 140.965 114.183C140.769 114.818 140.387 115.312 139.817 115.667C139.257 116.022 138.599 116.199 137.843 116.199C137.199 116.199 136.625 116.082 136.121 115.849C135.627 115.606 135.244 115.266 134.973 114.827C134.703 114.379 134.567 113.866 134.567 113.287C134.567 112.699 134.707 112.181 134.987 111.733C135.267 111.285 135.655 110.94 136.149 110.697C136.644 110.454 137.204 110.333 137.829 110.333ZM137.941 115.583C138.464 115.583 138.931 115.48 139.341 115.275C139.761 115.07 140.083 114.79 140.307 114.435C140.541 114.08 140.657 113.684 140.657 113.245C140.657 112.853 140.545 112.48 140.321 112.125C140.107 111.77 139.789 111.486 139.369 111.271C138.949 111.056 138.445 110.949 137.857 110.949C137.092 110.949 136.471 111.164 135.995 111.593C135.519 112.013 135.281 112.573 135.281 113.273C135.281 113.973 135.519 114.533 135.995 114.953C136.471 115.373 137.12 115.583 137.941 115.583ZM147.633 120.273C146.887 120.273 146.219 120.072 145.631 119.671C145.053 119.26 144.6 118.682 144.273 117.935C143.956 117.188 143.797 116.311 143.797 115.303C143.797 114.295 143.956 113.418 144.273 112.671C144.6 111.924 145.053 111.35 145.631 110.949C146.219 110.538 146.887 110.333 147.633 110.333C148.38 110.333 149.043 110.538 149.621 110.949C150.209 111.35 150.662 111.924 150.979 112.671C151.306 113.418 151.469 114.295 151.469 115.303C151.469 116.311 151.306 117.188 150.979 117.935C150.662 118.682 150.209 119.26 149.621 119.671C149.043 120.072 148.38 120.273 147.633 120.273ZM147.633 119.615C148.249 119.615 148.791 119.447 149.257 119.111C149.733 118.766 150.102 118.271 150.363 117.627C150.625 116.974 150.755 116.199 150.755 115.303C150.755 114.407 150.625 113.637 150.363 112.993C150.102 112.34 149.733 111.845 149.257 111.509C148.791 111.164 148.249 110.991 147.633 110.991C147.017 110.991 146.471 111.164 145.995 111.509C145.529 111.845 145.165 112.34 144.903 112.993C144.642 113.637 144.511 114.407 144.511 115.303C144.511 116.199 144.642 116.974 144.903 117.627C145.165 118.271 145.529 118.766 145.995 119.111C146.471 119.447 147.017 119.615 147.633 119.615ZM164.168 110.403V120.203H163.454V111.047H161.06V110.403H164.168ZM173.677 119.559V120.203H166.943V119.699L171.087 115.583C171.628 115.042 171.992 114.58 172.179 114.197C172.375 113.805 172.473 113.404 172.473 112.993C172.473 112.368 172.258 111.878 171.829 111.523C171.409 111.168 170.798 110.991 169.995 110.991C169.379 110.991 168.838 111.084 168.371 111.271C167.914 111.458 167.517 111.742 167.181 112.125L166.677 111.677C167.05 111.248 167.522 110.916 168.091 110.683C168.67 110.45 169.323 110.333 170.051 110.333C171.012 110.333 171.778 110.566 172.347 111.033C172.916 111.5 173.201 112.13 173.201 112.923C173.201 113.427 173.089 113.908 172.865 114.365C172.641 114.822 172.221 115.354 171.605 115.961L167.993 119.559H173.677ZM180.778 115.079C181.45 115.256 181.968 115.555 182.332 115.975C182.705 116.395 182.892 116.908 182.892 117.515C182.892 118.374 182.56 119.05 181.898 119.545C181.235 120.03 180.325 120.273 179.168 120.273C178.02 120.273 177.114 120.03 176.452 119.545C175.798 119.05 175.472 118.374 175.472 117.515C175.472 116.899 175.649 116.386 176.004 115.975C176.368 115.555 176.886 115.256 177.558 115.079C176.998 114.892 176.568 114.612 176.27 114.239C175.971 113.866 175.822 113.408 175.822 112.867C175.822 112.083 176.125 111.467 176.732 111.019C177.338 110.562 178.15 110.333 179.168 110.333C180.185 110.333 181.002 110.562 181.618 111.019C182.234 111.476 182.542 112.092 182.542 112.867C182.542 113.399 182.388 113.856 182.08 114.239C181.781 114.612 181.347 114.892 180.778 115.079ZM176.536 112.881C176.536 113.469 176.764 113.936 177.222 114.281C177.688 114.626 178.337 114.799 179.168 114.799C179.998 114.799 180.647 114.631 181.114 114.295C181.59 113.95 181.828 113.483 181.828 112.895C181.828 112.298 181.585 111.826 181.1 111.481C180.624 111.126 179.98 110.949 179.168 110.949C178.356 110.949 177.712 111.122 177.236 111.467C176.769 111.812 176.536 112.284 176.536 112.881ZM179.168 119.657C180.11 119.657 180.848 119.466 181.38 119.083C181.912 118.7 182.178 118.178 182.178 117.515C182.178 116.862 181.912 116.344 181.38 115.961C180.848 115.578 180.11 115.387 179.168 115.387C178.234 115.387 177.502 115.578 176.97 115.961C176.447 116.344 176.186 116.862 176.186 117.515C176.186 118.178 176.447 118.7 176.97 119.083C177.492 119.466 178.225 119.657 179.168 119.657ZM187.828 110.333C189.097 110.333 190.068 110.767 190.74 111.635C191.421 112.494 191.762 113.698 191.762 115.247C191.762 116.33 191.58 117.249 191.216 118.005C190.861 118.752 190.357 119.316 189.704 119.699C189.05 120.082 188.285 120.273 187.408 120.273C186.484 120.273 185.742 120.105 185.182 119.769L185.476 119.195C185.942 119.494 186.586 119.643 187.408 119.643C188.537 119.643 189.424 119.279 190.068 118.551C190.721 117.814 191.048 116.75 191.048 115.359C191.048 114.93 191.02 114.538 190.964 114.183C190.768 114.818 190.385 115.312 189.816 115.667C189.256 116.022 188.598 116.199 187.842 116.199C187.198 116.199 186.624 116.082 186.12 115.849C185.625 115.606 185.242 115.266 184.972 114.827C184.701 114.379 184.566 113.866 184.566 113.287C184.566 112.699 184.706 112.181 184.986 111.733C185.266 111.285 185.653 110.94 186.148 110.697C186.642 110.454 187.202 110.333 187.828 110.333ZM187.94 115.583C188.462 115.583 188.929 115.48 189.34 115.275C189.76 115.07 190.082 114.79 190.306 114.435C190.539 114.08 190.656 113.684 190.656 113.245C190.656 112.853 190.544 112.48 190.32 112.125C190.105 111.77 189.788 111.486 189.368 111.271C188.948 111.056 188.444 110.949 187.856 110.949C187.09 110.949 186.47 111.164 185.994 111.593C185.518 112.013 185.28 112.573 185.28 113.273C185.28 113.973 185.518 114.533 185.994 114.953C186.47 115.373 187.118 115.583 187.94 115.583Z" fill="white"/>
<path d="M30.5 127.203H190.331" stroke="white"/>
<path d="M36.352 150.273C35.3907 150.273 34.5227 150.058 33.748 149.629C32.9827 149.2 32.376 148.607 31.928 147.851C31.4893 147.095 31.27 146.246 31.27 145.303C31.27 144.36 31.4893 143.511 31.928 142.755C32.376 141.999 32.9827 141.406 33.748 140.977C34.5227 140.548 35.3907 140.333 36.352 140.333C37.0613 140.333 37.7147 140.45 38.312 140.683C38.9093 140.907 39.418 141.243 39.838 141.691L39.39 142.153C38.606 141.378 37.6027 140.991 36.38 140.991C35.5587 140.991 34.812 141.178 34.14 141.551C33.468 141.924 32.9407 142.442 32.558 143.105C32.1753 143.758 31.984 144.491 31.984 145.303C31.984 146.115 32.1753 146.852 32.558 147.515C32.9407 148.168 33.468 148.682 34.14 149.055C34.812 149.428 35.5587 149.615 36.38 149.615C37.5933 149.615 38.5967 149.223 39.39 148.439L39.838 148.901C39.418 149.349 38.9047 149.69 38.298 149.923C37.7007 150.156 37.052 150.273 36.352 150.273ZM44.8464 142.839C45.7518 142.839 46.4471 143.072 46.9324 143.539C47.4178 143.996 47.6604 144.673 47.6604 145.569V150.203H46.9884V148.901C46.7551 149.33 46.4144 149.666 45.9664 149.909C45.5184 150.142 44.9818 150.259 44.3564 150.259C43.5444 150.259 42.9004 150.068 42.4244 149.685C41.9578 149.302 41.7244 148.798 41.7244 148.173C41.7244 147.566 41.9391 147.076 42.3684 146.703C42.8071 146.32 43.5024 146.129 44.4544 146.129H46.9604V145.541C46.9604 144.86 46.7738 144.342 46.4004 143.987C46.0364 143.632 45.4998 143.455 44.7904 143.455C44.3051 143.455 43.8384 143.539 43.3904 143.707C42.9518 143.875 42.5784 144.099 42.2704 144.379L41.9204 143.875C42.2844 143.548 42.7231 143.296 43.2364 143.119C43.7498 142.932 44.2864 142.839 44.8464 142.839ZM44.4544 149.685C45.0611 149.685 45.5744 149.545 45.9944 149.265C46.4238 148.985 46.7458 148.579 46.9604 148.047V146.675H44.4684C43.7498 146.675 43.2271 146.806 42.9004 147.067C42.5831 147.328 42.4244 147.688 42.4244 148.145C42.4244 148.621 42.6018 148.999 42.9564 149.279C43.3111 149.55 43.8104 149.685 44.4544 149.685ZM51.7165 144.491C51.9405 143.959 52.2905 143.553 52.7665 143.273C53.2425 142.984 53.8212 142.839 54.5025 142.839V143.525L54.3345 143.511C53.5225 143.511 52.8879 143.768 52.4305 144.281C51.9732 144.785 51.7445 145.49 51.7445 146.395V150.203H51.0445V142.895H51.7165V144.491ZM63.3589 139.815V150.203H62.6729V148.481C62.3836 149.05 61.9776 149.489 61.4549 149.797C60.9322 150.105 60.3396 150.259 59.6769 150.259C58.9956 150.259 58.3796 150.1 57.8289 149.783C57.2782 149.466 56.8442 149.027 56.5269 148.467C56.2189 147.907 56.0649 147.268 56.0649 146.549C56.0649 145.83 56.2189 145.191 56.5269 144.631C56.8442 144.062 57.2782 143.623 57.8289 143.315C58.3796 142.998 58.9956 142.839 59.6769 142.839C60.3302 142.839 60.9136 142.993 61.4269 143.301C61.9496 143.609 62.3602 144.038 62.6589 144.589V139.815H63.3589ZM59.7189 149.629C60.2789 149.629 60.7782 149.498 61.2169 149.237C61.6649 148.976 62.0149 148.612 62.2669 148.145C62.5282 147.678 62.6589 147.146 62.6589 146.549C62.6589 145.952 62.5282 145.42 62.2669 144.953C62.0149 144.486 61.6649 144.122 61.2169 143.861C60.7782 143.6 60.2789 143.469 59.7189 143.469C59.1589 143.469 58.6549 143.6 58.2069 143.861C57.7682 144.122 57.4182 144.486 57.1569 144.953C56.9049 145.42 56.7789 145.952 56.7789 146.549C56.7789 147.146 56.9049 147.678 57.1569 148.145C57.4182 148.612 57.7682 148.976 58.2069 149.237C58.6549 149.498 59.1589 149.629 59.7189 149.629ZM70.3802 142.839C71.2948 142.839 72.0182 143.105 72.5502 143.637C73.0822 144.169 73.3482 144.934 73.3482 145.933V150.203H72.6482V145.989C72.6482 145.168 72.4382 144.542 72.0182 144.113C71.6075 143.684 71.0288 143.469 70.2822 143.469C69.4235 143.469 68.7468 143.726 68.2522 144.239C67.7575 144.752 67.5102 145.443 67.5102 146.311V150.203H66.8102V139.815H67.5102V144.421C67.7622 143.917 68.1355 143.53 68.6302 143.259C69.1248 142.979 69.7082 142.839 70.3802 142.839ZM79.5998 150.259C78.9091 150.259 78.2838 150.1 77.7238 149.783C77.1731 149.466 76.7391 149.027 76.4218 148.467C76.1044 147.898 75.9458 147.258 75.9458 146.549C75.9458 145.84 76.1044 145.205 76.4218 144.645C76.7391 144.076 77.1731 143.632 77.7238 143.315C78.2838 142.998 78.9091 142.839 79.5998 142.839C80.2904 142.839 80.9111 142.998 81.4618 143.315C82.0218 143.632 82.4604 144.076 82.7778 144.645C83.0951 145.205 83.2538 145.84 83.2538 146.549C83.2538 147.258 83.0951 147.898 82.7778 148.467C82.4604 149.027 82.0218 149.466 81.4618 149.783C80.9111 150.1 80.2904 150.259 79.5998 150.259ZM79.5998 149.629C80.1598 149.629 80.6591 149.498 81.0978 149.237C81.5458 148.976 81.8958 148.612 82.1478 148.145C82.4091 147.678 82.5398 147.146 82.5398 146.549C82.5398 145.952 82.4091 145.42 82.1478 144.953C81.8958 144.486 81.5458 144.122 81.0978 143.861C80.6591 143.6 80.1598 143.469 79.5998 143.469C79.0398 143.469 78.5358 143.6 78.0878 143.861C77.6491 144.122 77.2991 144.486 77.0378 144.953C76.7858 145.42 76.6598 145.952 76.6598 146.549C76.6598 147.146 76.7858 147.678 77.0378 148.145C77.2991 148.612 77.6491 148.976 78.0878 149.237C78.5358 149.498 79.0398 149.629 79.5998 149.629ZM85.9254 139.815H86.6254V150.203H85.9254V139.815ZM96.5718 139.815V150.203H95.8858V148.481C95.5965 149.05 95.1905 149.489 94.6678 149.797C94.1451 150.105 93.5525 150.259 92.8898 150.259C92.2085 150.259 91.5925 150.1 91.0418 149.783C90.4911 149.466 90.0571 149.027 89.7398 148.467C89.4318 147.907 89.2778 147.268 89.2778 146.549C89.2778 145.83 89.4318 145.191 89.7398 144.631C90.0571 144.062 90.4911 143.623 91.0418 143.315C91.5925 142.998 92.2085 142.839 92.8898 142.839C93.5431 142.839 94.1265 142.993 94.6398 143.301C95.1625 143.609 95.5731 144.038 95.8718 144.589V139.815H96.5718ZM92.9318 149.629C93.4918 149.629 93.9911 149.498 94.4298 149.237C94.8778 148.976 95.2278 148.612 95.4798 148.145C95.7411 147.678 95.8718 147.146 95.8718 146.549C95.8718 145.952 95.7411 145.42 95.4798 144.953C95.2278 144.486 94.8778 144.122 94.4298 143.861C93.9911 143.6 93.4918 143.469 92.9318 143.469C92.3718 143.469 91.8678 143.6 91.4198 143.861C90.9811 144.122 90.6311 144.486 90.3698 144.953C90.1178 145.42 89.9918 145.952 89.9918 146.549C89.9918 147.146 90.1178 147.678 90.3698 148.145C90.6311 148.612 90.9811 148.976 91.4198 149.237C91.8678 149.498 92.3718 149.629 92.9318 149.629ZM106.197 146.717H99.9111C99.9297 147.286 100.074 147.795 100.345 148.243C100.616 148.682 100.98 149.022 101.437 149.265C101.904 149.508 102.426 149.629 103.005 149.629C103.481 149.629 103.92 149.545 104.321 149.377C104.732 149.2 105.072 148.943 105.343 148.607L105.749 149.069C105.432 149.452 105.03 149.746 104.545 149.951C104.069 150.156 103.551 150.259 102.991 150.259C102.263 150.259 101.614 150.1 101.045 149.783C100.476 149.466 100.028 149.027 99.7011 148.467C99.3837 147.907 99.2251 147.268 99.2251 146.549C99.2251 145.84 99.3744 145.205 99.6731 144.645C99.9811 144.076 100.401 143.632 100.933 143.315C101.465 142.998 102.062 142.839 102.725 142.839C103.388 142.839 103.98 142.998 104.503 143.315C105.035 143.623 105.45 144.057 105.749 144.617C106.057 145.177 106.211 145.812 106.211 146.521L106.197 146.717ZM102.725 143.455C102.212 143.455 101.75 143.572 101.339 143.805C100.928 144.029 100.597 144.351 100.345 144.771C100.102 145.182 99.9624 145.648 99.9251 146.171H105.525C105.497 145.648 105.357 145.182 105.105 144.771C104.853 144.36 104.522 144.038 104.111 143.805C103.7 143.572 103.238 143.455 102.725 143.455ZM109.549 144.491C109.773 143.959 110.123 143.553 110.599 143.273C111.075 142.984 111.653 142.839 112.335 142.839V143.525L112.167 143.511C111.355 143.511 110.72 143.768 110.263 144.281C109.805 144.785 109.577 145.49 109.577 146.395V150.203H108.877V142.895H109.549V144.491ZM122.552 142.839C123.467 142.839 124.19 143.105 124.722 143.637C125.254 144.169 125.52 144.934 125.52 145.933V150.203H124.82V145.989C124.82 145.168 124.61 144.542 124.19 144.113C123.779 143.684 123.201 143.469 122.454 143.469C121.595 143.469 120.919 143.726 120.424 144.239C119.929 144.752 119.682 145.443 119.682 146.311V150.203H118.982V142.895H119.654V144.477C119.906 143.964 120.279 143.562 120.774 143.273C121.278 142.984 121.871 142.839 122.552 142.839ZM131.366 142.839C132.271 142.839 132.967 143.072 133.452 143.539C133.937 143.996 134.18 144.673 134.18 145.569V150.203H133.508V148.901C133.275 149.33 132.934 149.666 132.486 149.909C132.038 150.142 131.501 150.259 130.876 150.259C130.064 150.259 129.42 150.068 128.944 149.685C128.477 149.302 128.244 148.798 128.244 148.173C128.244 147.566 128.459 147.076 128.888 146.703C129.327 146.32 130.022 146.129 130.974 146.129H133.48V145.541C133.48 144.86 133.293 144.342 132.92 143.987C132.556 143.632 132.019 143.455 131.31 143.455C130.825 143.455 130.358 143.539 129.91 143.707C129.471 143.875 129.098 144.099 128.79 144.379L128.44 143.875C128.804 143.548 129.243 143.296 129.756 143.119C130.269 142.932 130.806 142.839 131.366 142.839ZM130.974 149.685C131.581 149.685 132.094 149.545 132.514 149.265C132.943 148.985 133.265 148.579 133.48 148.047V146.675H130.988C130.269 146.675 129.747 146.806 129.42 147.067C129.103 147.328 128.944 147.688 128.944 148.145C128.944 148.621 129.121 148.999 129.476 149.279C129.831 149.55 130.33 149.685 130.974 149.685ZM146.664 142.839C147.569 142.839 148.279 143.105 148.792 143.637C149.315 144.169 149.576 144.934 149.576 145.933V150.203H148.876V145.989C148.876 145.168 148.675 144.542 148.274 144.113C147.873 143.684 147.313 143.469 146.594 143.469C145.773 143.469 145.119 143.726 144.634 144.239C144.158 144.752 143.92 145.443 143.92 146.311V150.203H143.22V145.989C143.22 145.168 143.019 144.542 142.618 144.113C142.217 143.684 141.657 143.469 140.938 143.469C140.117 143.469 139.463 143.726 138.978 144.239C138.502 144.752 138.264 145.443 138.264 146.311V150.203H137.564V142.895H138.236V144.463C138.479 143.95 138.838 143.553 139.314 143.273C139.799 142.984 140.373 142.839 141.036 142.839C141.699 142.839 142.259 142.988 142.716 143.287C143.183 143.586 143.514 144.024 143.71 144.603C143.953 144.062 144.331 143.632 144.844 143.315C145.367 142.998 145.973 142.839 146.664 142.839ZM159.154 146.717H152.868C152.887 147.286 153.031 147.795 153.302 148.243C153.573 148.682 153.937 149.022 154.394 149.265C154.861 149.508 155.383 149.629 155.962 149.629C156.438 149.629 156.877 149.545 157.278 149.377C157.689 149.2 158.029 148.943 158.3 148.607L158.706 149.069C158.389 149.452 157.987 149.746 157.502 149.951C157.026 150.156 156.508 150.259 155.948 150.259C155.22 150.259 154.571 150.1 154.002 149.783C153.433 149.466 152.985 149.027 152.658 148.467C152.341 147.907 152.182 147.268 152.182 146.549C152.182 145.84 152.331 145.205 152.63 144.645C152.938 144.076 153.358 143.632 153.89 143.315C154.422 142.998 155.019 142.839 155.682 142.839C156.345 142.839 156.937 142.998 157.46 143.315C157.992 143.623 158.407 144.057 158.706 144.617C159.014 145.177 159.168 145.812 159.168 146.521L159.154 146.717ZM155.682 143.455C155.169 143.455 154.707 143.572 154.296 143.805C153.885 144.029 153.554 144.351 153.302 144.771C153.059 145.182 152.919 145.648 152.882 146.171H158.482C158.454 145.648 158.314 145.182 158.062 144.771C157.81 144.36 157.479 144.038 157.068 143.805C156.657 143.572 156.195 143.455 155.682 143.455Z" fill="white"/>
<path d="M30.5 157.203H190.331" stroke="white"/>
<path d="M46.124 74.1631C46.124 75.0778 45.8813 75.9178 45.396 76.6831C44.9293 77.4298 44.2107 78.0458 43.24 78.5311C42.2693 79.0165 41.0653 79.2871 39.628 79.3431V82.5631H38.592V79.3431C37.2293 79.2871 35.9413 79.0165 34.728 78.5311C33.5333 78.0458 32.6 77.4298 31.928 76.6831L32.572 75.6191C33.2253 76.2911 34.0933 76.8605 35.176 77.3271C36.2587 77.7751 37.3973 78.0271 38.592 78.0831V69.9631C37.304 69.6458 36.24 69.3098 35.4 68.9551C34.56 68.6005 33.86 68.0778 33.3 67.3871C32.74 66.6965 32.46 65.7911 32.46 64.6711C32.46 63.2711 32.9733 62.0858 34 61.1151C35.0453 60.1445 36.576 59.6031 38.592 59.4911V56.2431H39.628V59.4631C40.692 59.5005 41.7187 59.6778 42.708 59.9951C43.716 60.2938 44.584 60.7045 45.312 61.2271L44.78 62.3751C44.0147 61.8525 43.184 61.4605 42.288 61.1991C41.392 60.9191 40.5053 60.7605 39.628 60.7231V68.8431C41.0467 69.1978 42.1853 69.5431 43.044 69.8791C43.9027 70.2151 44.6307 70.7285 45.228 71.4191C45.8253 72.0911 46.124 73.0058 46.124 74.1631ZM33.888 64.6431C33.888 65.7818 34.2893 66.6311 35.092 67.1911C35.8947 67.7325 37.0613 68.1991 38.592 68.5911V60.7511C37.0427 60.8631 35.8667 61.2831 35.064 62.0111C34.28 62.7205 33.888 63.5978 33.888 64.6431ZM39.628 78.0831C41.308 78.0085 42.568 77.6165 43.408 76.9071C44.2667 76.1978 44.696 75.3111 44.696 74.2471C44.696 73.4258 44.472 72.7631 44.024 72.2591C43.576 71.7365 43.0067 71.3351 42.316 71.0551C41.6253 70.7751 40.7293 70.4951 39.628 70.2151V78.0831ZM53.8905 67.8071C56.7465 67.8071 58.8185 68.3111 60.1065 69.3191C61.3945 70.3085 62.0385 71.7178 62.0385 73.5471C62.0385 74.6671 61.7772 75.6658 61.2545 76.5431C60.7505 77.4018 59.9852 78.0831 58.9585 78.5871C57.9318 79.0911 56.6718 79.3431 55.1785 79.3431C53.7598 79.3431 52.4252 79.1005 51.1745 78.6151C49.9425 78.1298 48.9812 77.4951 48.2905 76.7111L49.0185 75.6191C49.6345 76.3285 50.4838 76.9071 51.5665 77.3551C52.6678 77.8031 53.8625 78.0271 55.1505 78.0271C56.9052 78.0271 58.2492 77.6258 59.1825 76.8231C60.1345 76.0205 60.6105 74.9471 60.6105 73.6031C60.6105 72.1285 60.0692 71.0085 58.9865 70.2431C57.9225 69.4778 56.1212 69.0951 53.5825 69.0951H49.6065L50.6425 59.6031H61.0305V60.8911H51.8465L51.0905 67.8071H53.8905ZM72.3878 79.3431C70.8944 79.3431 69.5598 78.9418 68.3838 78.1391C67.2264 77.3178 66.3211 76.1605 65.6678 74.6671C65.0331 73.1738 64.7158 71.4191 64.7158 69.4031C64.7158 67.3871 65.0331 65.6325 65.6678 64.1391C66.3211 62.6458 67.2264 61.4978 68.3838 60.6951C69.5598 59.8738 70.8944 59.4631 72.3878 59.4631C73.8811 59.4631 75.2064 59.8738 76.3638 60.6951C77.5398 61.4978 78.4451 62.6458 79.0798 64.1391C79.7331 65.6325 80.0598 67.3871 80.0598 69.4031C80.0598 71.4191 79.7331 73.1738 79.0798 74.6671C78.4451 76.1605 77.5398 77.3178 76.3638 78.1391C75.2064 78.9418 73.8811 79.3431 72.3878 79.3431ZM72.3878 78.0271C73.6198 78.0271 74.7024 77.6911 75.6358 77.0191C76.5878 76.3285 77.3251 75.3391 77.8478 74.0511C78.3704 72.7445 78.6318 71.1951 78.6318 69.4031C78.6318 67.6111 78.3704 66.0711 77.8478 64.7831C77.3251 63.4765 76.5878 62.4871 75.6358 61.8151C74.7024 61.1245 73.6198 60.7791 72.3878 60.7791C71.1558 60.7791 70.0638 61.1245 69.1118 61.8151C68.1784 62.4871 67.4504 63.4765 66.9278 64.7831C66.4051 66.0711 66.1438 67.6111 66.1438 69.4031C66.1438 71.1951 66.4051 72.7445 66.9278 74.0511C67.4504 75.3391 68.1784 76.3285 69.1118 77.0191C70.0638 77.6911 71.1558 78.0271 72.3878 78.0271Z" fill="white"/>
<path opacity="0.73" d="M32.096 34.4031H36.086C37.122 34.4031 38.0367 34.6131 38.83 35.0331C39.6233 35.4438 40.2393 36.0225 40.678 36.7691C41.1167 37.5065 41.336 38.3511 41.336 39.3031C41.336 40.2551 41.1167 41.1045 40.678 41.8511C40.2393 42.5885 39.6233 43.1671 38.83 43.5871C38.0367 43.9978 37.122 44.2031 36.086 44.2031H32.096V34.4031ZM36.03 43.3071C36.8887 43.3071 37.64 43.1391 38.284 42.8031C38.928 42.4578 39.4273 41.9865 39.782 41.3891C40.1367 40.7825 40.314 40.0871 40.314 39.3031C40.314 38.5191 40.1367 37.8285 39.782 37.2311C39.4273 36.6245 38.928 36.1531 38.284 35.8171C37.64 35.4718 36.8887 35.2991 36.03 35.2991H33.132V43.3071H36.03ZM46.4624 44.2731C45.7531 44.2731 45.1137 44.1145 44.5444 43.7971C43.9751 43.4705 43.5271 43.0225 43.2004 42.4531C42.8737 41.8838 42.7104 41.2398 42.7104 40.5211C42.7104 39.8025 42.8737 39.1585 43.2004 38.5891C43.5271 38.0198 43.9751 37.5765 44.5444 37.2591C45.1137 36.9418 45.7531 36.7831 46.4624 36.7831C47.1717 36.7831 47.8111 36.9418 48.3804 37.2591C48.9497 37.5765 49.3931 38.0198 49.7104 38.5891C50.0371 39.1585 50.2004 39.8025 50.2004 40.5211C50.2004 41.2398 50.0371 41.8838 49.7104 42.4531C49.3931 43.0225 48.9497 43.4705 48.3804 43.7971C47.8111 44.1145 47.1717 44.2731 46.4624 44.2731ZM46.4624 43.3911C46.9851 43.3911 47.4517 43.2745 47.8624 43.0411C48.2824 42.7985 48.6091 42.4578 48.8424 42.0191C49.0757 41.5805 49.1924 41.0811 49.1924 40.5211C49.1924 39.9611 49.0757 39.4618 48.8424 39.0231C48.6091 38.5845 48.2824 38.2485 47.8624 38.0151C47.4517 37.7725 46.9851 37.6511 46.4624 37.6511C45.9397 37.6511 45.4684 37.7725 45.0484 38.0151C44.6377 38.2485 44.3111 38.5845 44.0684 39.0231C43.8351 39.4618 43.7184 39.9611 43.7184 40.5211C43.7184 41.0811 43.8351 41.5805 44.0684 42.0191C44.3111 42.4578 44.6377 42.7985 45.0484 43.0411C45.4684 43.2745 45.9397 43.3911 46.4624 43.3911ZM55.9818 36.7831C56.9058 36.7831 57.6384 37.0538 58.1798 37.5951C58.7304 38.1271 59.0058 38.9065 59.0058 39.9331V44.2031H58.0118V40.0311C58.0118 39.2658 57.8204 38.6825 57.4378 38.2811C57.0551 37.8798 56.5091 37.6791 55.7998 37.6791C55.0064 37.6791 54.3764 37.9171 53.9098 38.3931C53.4524 38.8598 53.2238 39.5085 53.2238 40.3391V44.2031H52.2298V36.8391H53.1818V38.1971C53.4524 37.7491 53.8258 37.4038 54.3018 37.1611C54.7871 36.9091 55.3471 36.7831 55.9818 36.7831ZM64.2804 36.7831C65.2417 36.7831 65.979 37.0258 66.4924 37.5111C67.0057 37.9871 67.2624 38.6965 67.2624 39.6391V44.2031H66.3104V43.0551C66.0864 43.4378 65.755 43.7365 65.3164 43.9511C64.887 44.1658 64.3737 44.2731 63.7764 44.2731C62.955 44.2731 62.3017 44.0771 61.8164 43.6851C61.331 43.2931 61.0884 42.7751 61.0884 42.1311C61.0884 41.5058 61.3124 41.0018 61.7604 40.6191C62.2177 40.2365 62.941 40.0451 63.9304 40.0451H66.2684V39.5971C66.2684 38.9625 66.091 38.4818 65.7364 38.1551C65.3817 37.8191 64.8637 37.6511 64.1824 37.6511C63.7157 37.6511 63.2677 37.7305 62.8384 37.8891C62.409 38.0385 62.0404 38.2485 61.7324 38.5191L61.2844 37.7771C61.6577 37.4598 62.1057 37.2171 62.6284 37.0491C63.151 36.8718 63.7017 36.7831 64.2804 36.7831ZM63.9304 43.4891C64.4904 43.4891 64.971 43.3631 65.3724 43.1111C65.7737 42.8498 66.0724 42.4765 66.2684 41.9911V40.7871H63.9584C62.6984 40.7871 62.0684 41.2258 62.0684 42.1031C62.0684 42.5325 62.2317 42.8731 62.5584 43.1251C62.885 43.3678 63.3424 43.4891 63.9304 43.4891ZM73.8402 43.7551C73.6535 43.9231 73.4202 44.0538 73.1402 44.1471C72.8695 44.2311 72.5848 44.2731 72.2862 44.2731C71.5955 44.2731 71.0635 44.0865 70.6902 43.7131C70.3168 43.3398 70.1302 42.8125 70.1302 42.1311V37.6791H68.8142V36.8391H70.1302V35.2291H71.1242V36.8391H73.3642V37.6791H71.1242V42.0751C71.1242 42.5138 71.2315 42.8498 71.4462 43.0831C71.6702 43.3071 71.9875 43.4191 72.3982 43.4191C72.6035 43.4191 72.7995 43.3865 72.9862 43.3211C73.1822 43.2558 73.3502 43.1625 73.4902 43.0411L73.8402 43.7551ZM75.6497 36.8391H76.6437V44.2031H75.6497V36.8391ZM76.1537 35.2291C75.9483 35.2291 75.7757 35.1591 75.6357 35.0191C75.4957 34.8791 75.4257 34.7111 75.4257 34.5151C75.4257 34.3285 75.4957 34.1651 75.6357 34.0251C75.7757 33.8851 75.9483 33.8151 76.1537 33.8151C76.359 33.8151 76.5317 33.8851 76.6717 34.0251C76.8117 34.1558 76.8817 34.3145 76.8817 34.5011C76.8817 34.7065 76.8117 34.8791 76.6717 35.0191C76.5317 35.1591 76.359 35.2291 76.1537 35.2291ZM82.4194 44.2731C81.7101 44.2731 81.0708 44.1145 80.5014 43.7971C79.9321 43.4705 79.4841 43.0225 79.1574 42.4531C78.8308 41.8838 78.6674 41.2398 78.6674 40.5211C78.6674 39.8025 78.8308 39.1585 79.1574 38.5891C79.4841 38.0198 79.9321 37.5765 80.5014 37.2591C81.0708 36.9418 81.7101 36.7831 82.4194 36.7831C83.1288 36.7831 83.7681 36.9418 84.3374 37.2591C84.9068 37.5765 85.3501 38.0198 85.6674 38.5891C85.9941 39.1585 86.1574 39.8025 86.1574 40.5211C86.1574 41.2398 85.9941 41.8838 85.6674 42.4531C85.3501 43.0225 84.9068 43.4705 84.3374 43.7971C83.7681 44.1145 83.1288 44.2731 82.4194 44.2731ZM82.4194 43.3911C82.9421 43.3911 83.4088 43.2745 83.8194 43.0411C84.2394 42.7985 84.5661 42.4578 84.7994 42.0191C85.0328 41.5805 85.1494 41.0811 85.1494 40.5211C85.1494 39.9611 85.0328 39.4618 84.7994 39.0231C84.5661 38.5845 84.2394 38.2485 83.8194 38.0151C83.4088 37.7725 82.9421 37.6511 82.4194 37.6511C81.8968 37.6511 81.4254 37.7725 81.0054 38.0151C80.5948 38.2485 80.2681 38.5845 80.0254 39.0231C79.7921 39.4618 79.6754 39.9611 79.6754 40.5211C79.6754 41.0811 79.7921 41.5805 80.0254 42.0191C80.2681 42.4578 80.5948 42.7985 81.0054 43.0411C81.4254 43.2745 81.8968 43.3911 82.4194 43.3911ZM91.9388 36.7831C92.8628 36.7831 93.5954 37.0538 94.1368 37.5951C94.6874 38.1271 94.9628 38.9065 94.9628 39.9331V44.2031H93.9688V40.0311C93.9688 39.2658 93.7774 38.6825 93.3948 38.2811C93.0121 37.8798 92.4661 37.6791 91.7568 37.6791C90.9634 37.6791 90.3334 37.9171 89.8668 38.3931C89.4094 38.8598 89.1808 39.5085 89.1808 40.3391V44.2031H88.1868V36.8391H89.1388V38.1971C89.4094 37.7491 89.7828 37.4038 90.2588 37.1611C90.7441 36.9091 91.3041 36.7831 91.9388 36.7831ZM105.203 43.7551C105.017 43.9231 104.783 44.0538 104.503 44.1471C104.233 44.2311 103.948 44.2731 103.649 44.2731C102.959 44.2731 102.427 44.0865 102.053 43.7131C101.68 43.3398 101.493 42.8125 101.493 42.1311V37.6791H100.177V36.8391H101.493V35.2291H102.487V36.8391H104.727V37.6791H102.487V42.0751C102.487 42.5138 102.595 42.8498 102.809 43.0831C103.033 43.3071 103.351 43.4191 103.761 43.4191C103.967 43.4191 104.163 43.3865 104.349 43.3211C104.545 43.2558 104.713 43.1625 104.853 43.0411L105.203 43.7551ZM109.763 44.2731C109.054 44.2731 108.415 44.1145 107.845 43.7971C107.276 43.4705 106.828 43.0225 106.501 42.4531C106.175 41.8838 106.011 41.2398 106.011 40.5211C106.011 39.8025 106.175 39.1585 106.501 38.5891C106.828 38.0198 107.276 37.5765 107.845 37.2591C108.415 36.9418 109.054 36.7831 109.763 36.7831C110.473 36.7831 111.112 36.9418 111.681 37.2591C112.251 37.5765 112.694 38.0198 113.011 38.5891C113.338 39.1585 113.501 39.8025 113.501 40.5211C113.501 41.2398 113.338 41.8838 113.011 42.4531C112.694 43.0225 112.251 43.4705 111.681 43.7971C111.112 44.1145 110.473 44.2731 109.763 44.2731ZM109.763 43.3911C110.286 43.3911 110.753 43.2745 111.163 43.0411C111.583 42.7985 111.91 42.4578 112.143 42.0191C112.377 41.5805 112.493 41.0811 112.493 40.5211C112.493 39.9611 112.377 39.4618 112.143 39.0231C111.91 38.5845 111.583 38.2485 111.163 38.0151C110.753 37.7725 110.286 37.6511 109.763 37.6511C109.241 37.6511 108.769 37.7725 108.349 38.0151C107.939 38.2485 107.612 38.5845 107.369 39.0231C107.136 39.4618 107.019 39.9611 107.019 40.5211C107.019 41.0811 107.136 41.5805 107.369 42.0191C107.612 42.4578 107.939 42.7985 108.349 43.0411C108.769 43.2745 109.241 43.3911 109.763 43.3911ZM119.409 43.7551C119.222 43.9231 118.989 44.0538 118.709 44.1471C118.438 44.2311 118.153 44.2731 117.855 44.2731C117.164 44.2731 116.632 44.0865 116.259 43.7131C115.885 43.3398 115.699 42.8125 115.699 42.1311V37.6791H114.383V36.8391H115.699V35.2291H116.693V36.8391H118.933V37.6791H116.693V42.0751C116.693 42.5138 116.8 42.8498 117.015 43.0831C117.239 43.3071 117.556 43.4191 117.967 43.4191C118.172 43.4191 118.368 43.3865 118.555 43.3211C118.751 43.2558 118.919 43.1625 119.059 43.0411L119.409 43.7551ZM123.794 36.7831C124.755 36.7831 125.493 37.0258 126.006 37.5111C126.519 37.9871 126.776 38.6965 126.776 39.6391V44.2031H125.824V43.0551C125.6 43.4378 125.269 43.7365 124.83 43.9511C124.401 44.1658 123.887 44.2731 123.29 44.2731C122.469 44.2731 121.815 44.0771 121.33 43.6851C120.845 43.2931 120.602 42.7751 120.602 42.1311C120.602 41.5058 120.826 41.0018 121.274 40.6191C121.731 40.2365 122.455 40.0451 123.444 40.0451H125.782V39.5971C125.782 38.9625 125.605 38.4818 125.25 38.1551C124.895 37.8191 124.377 37.6511 123.696 37.6511C123.229 37.6511 122.781 37.7305 122.352 37.8891C121.923 38.0385 121.554 38.2485 121.246 38.5191L120.798 37.7771C121.171 37.4598 121.619 37.2171 122.142 37.0491C122.665 36.8718 123.215 36.7831 123.794 36.7831ZM123.444 43.4891C124.004 43.4891 124.485 43.3631 124.886 43.1111C125.287 42.8498 125.586 42.4765 125.782 41.9911V40.7871H123.472C122.212 40.7871 121.582 41.2258 121.582 42.1031C121.582 42.5325 121.745 42.8731 122.072 43.1251C122.399 43.3678 122.856 43.4891 123.444 43.4891ZM129.476 33.8151H130.47V44.2031H129.476V33.8151Z" fill="white"/>
<path fill-rule="evenodd" clip-rule="evenodd" d="M251.75 39.453H247.856L244.936 28.3116C244.797 27.7991 244.503 27.346 244.07 27.1325C242.989 26.5958 241.799 26.1688 240.5 25.9534V25.5244H246.774C247.64 25.5244 248.289 26.1688 248.397 26.9171L249.912 34.9538L253.805 25.5244H257.591L251.75 39.453ZM259.756 39.453H256.078L259.106 25.5244H262.784L259.756 39.453ZM267.543 29.383C267.651 28.6328 268.301 28.2039 269.058 28.2039C270.249 28.0962 271.546 28.3116 272.628 28.8464L273.277 25.8475C272.195 25.4185 271.004 25.2031 269.924 25.2031C266.354 25.2031 263.757 27.1324 263.757 29.8101C263.757 31.8471 265.597 32.9167 266.895 33.561C268.301 34.2035 268.842 34.6325 268.733 35.275C268.733 36.2387 267.651 36.6676 266.571 36.6676C265.272 36.6676 263.973 36.3464 262.784 35.8097L262.135 38.8105C263.434 39.3453 264.839 39.5607 266.138 39.5607C270.14 39.6665 272.628 37.7391 272.628 34.846C272.628 31.2028 267.543 30.9892 267.543 29.383ZM285.5 39.453L282.58 25.5244H279.443C278.793 25.5244 278.144 25.9534 277.928 26.5958L272.52 39.453H276.306L277.062 37.4179H281.714L282.147 39.453H285.5ZM279.984 29.2754L281.064 34.5248H278.036L279.984 29.2754Z" fill="white"/>
<path fill-rule="evenodd" clip-rule="evenodd" d="M263 75.8764C260.617 77.9329 257.526 79.1744 254.148 79.1744C246.61 79.1744 240.5 72.9933 240.5 65.3685C240.5 57.7436 246.61 51.5625 254.148 51.5625C257.526 51.5625 260.617 52.804 263 54.8606C265.383 52.804 268.475 51.5625 271.853 51.5625C279.39 51.5625 285.5 57.7436 285.5 65.3685C285.5 72.9933 279.39 79.1744 271.853 79.1744C268.475 79.1744 265.383 77.9329 263 75.8764Z" fill="#ED0006"/>
<path fill-rule="evenodd" clip-rule="evenodd" d="M263 75.8764C265.934 73.3441 267.795 69.5761 267.795 65.3685C267.795 61.1608 265.934 57.3928 263 54.8606C265.383 52.804 268.474 51.5625 271.852 51.5625C279.39 51.5625 285.5 57.7436 285.5 65.3685C285.5 72.9933 279.39 79.1744 271.852 79.1744C268.474 79.1744 265.383 77.9329 263 75.8764Z" fill="#F9A000"/>
<path fill-rule="evenodd" clip-rule="evenodd" d="M263 75.8751C265.934 73.3428 267.795 69.5749 267.795 65.3672C267.795 61.1596 265.934 57.3916 263 54.8594C260.066 57.3916 258.205 61.1596 258.205 65.3672C258.205 69.5749 260.066 73.3428 263 75.8751Z" fill="#FF5E00"/>
<defs>
<linearGradient id="paint0_linear" x1="159.086" y1="-30.3021" x2="165.799" y2="207.239" gradientUnits="userSpaceOnUse">
<stop stop-color="#9C2CF3"/>
<stop offset="1" stop-color="#3A49F9"/>
</linearGradient>
</defs>
</svg>
