<svg width="24" height="24" viewBox="0 0 24 24" fill="none" xmlns="http://www.w3.org/2000/svg">
<path d="M13.5443 10.4545C12.7252 9.63573 11.6144 9.17578 10.4563 9.17578C9.29815 9.17578 8.18741 9.63573 7.3683 10.4545L4.2793 13.5425C3.46018 14.3616 3 15.4726 3 16.631C3 17.7894 3.46018 18.9004 4.2793 19.7195C5.09842 20.5386 6.20939 20.9988 7.3678 20.9988C8.52621 20.9988 9.63718 20.5386 10.4563 19.7195L12.0003 18.1755" stroke="#3A3A3A" stroke-width="2" stroke-linecap="round" stroke-linejoin="round"/>
<path d="M10.4561 13.5443C11.2752 14.3631 12.3859 14.823 13.5441 14.823C14.7022 14.823 15.8129 14.3631 16.6321 13.5443L19.7211 10.4563C20.5402 9.63718 21.0004 8.52621 21.0004 7.3678C21.0004 6.20939 20.5402 5.09842 19.7211 4.2793C18.9019 3.46018 17.791 3 16.6326 3C15.4741 3 14.3632 3.46018 13.5441 4.2793L12.0001 5.8233" stroke="#3A3A3A" stroke-width="2" stroke-linecap="round" stroke-linejoin="round"/>
</svg>
