<svg width="25" height="24" viewBox="0 0 25 24" fill="none" xmlns="http://www.w3.org/2000/svg">
<path d="M12.5 16C14.7091 16 16.5 14.2091 16.5 12C16.5 9.79086 14.7091 8 12.5 8C10.2909 8 8.5 9.79086 8.5 12C8.5 14.2091 10.2909 16 12.5 16Z" stroke="#E76F51" stroke-width="2" stroke-linecap="round" stroke-linejoin="round"/>
<path d="M22.5 12C22.5 6.477 18.023 2 12.5 2C6.977 2 2.5 6.477 2.5 12C2.5 17.523 6.977 22 12.5 22C14.752 22 16.83 21.256 18.501 20" stroke="#E76F51" stroke-width="2" stroke-linecap="round" stroke-linejoin="round"/>
<path d="M16.5 8V12C16.5 13 17.1 15 19.5 15C21.9 15 22.5 13 22.5 12" stroke="#E76F51" stroke-width="2" stroke-linecap="round" stroke-linejoin="round"/>
</svg>
