<svg width="25" height="24" viewBox="0 0 25 24" fill="none" xmlns="http://www.w3.org/2000/svg">
<path d="M2.33594 11.083C2.33591 10.4399 2.49096 9.80619 2.78794 9.23573C3.08492 8.66527 3.51508 8.17483 4.04194 7.80599L10.0419 3.60599C10.7143 3.13529 11.5152 2.88281 12.3359 2.88281C13.1567 2.88281 13.9576 3.13529 14.6299 3.60599L20.6299 7.80599C21.1568 8.17483 21.587 8.66527 21.8839 9.23573C22.1809 9.80619 22.336 10.4399 22.3359 11.083V19C22.3359 19.5304 22.1252 20.0391 21.7502 20.4142C21.3751 20.7893 20.8664 21 20.3359 21H4.33594C3.8055 21 3.2968 20.7893 2.92172 20.4142C2.54665 20.0391 2.33594 19.5304 2.33594 19V11.083Z" stroke="#B3B3B3" stroke-width="2" stroke-linecap="round" stroke-linejoin="round"/>
<path d="M2.33594 9L9.83694 15.001C10.5462 15.5685 11.4276 15.8777 12.3359 15.8777C13.2443 15.8777 14.1256 15.5685 14.8349 15.001L22.3359 9" stroke="#B3B3B3" stroke-width="2" stroke-linecap="round" stroke-linejoin="round"/>
</svg>
