<svg width="49" height="48" viewBox="0 0 49 48" fill="none" xmlns="http://www.w3.org/2000/svg">
<path d="M33.282 10.8157L37.518 15.0497L33.282 10.8157ZM36.006 7.08565L24.552 18.5397C23.9602 19.1307 23.5565 19.8836 23.392 20.7037L22.334 25.9997L27.63 24.9397C28.45 24.7757 29.202 24.3737 29.794 23.7817L41.248 12.3277C41.5922 11.9835 41.8652 11.5748 42.0515 11.1251C42.2378 10.6754 42.3336 10.1934 42.3336 9.70665C42.3336 9.21989 42.2378 8.73789 42.0515 8.28818C41.8652 7.83847 41.5922 7.42985 41.248 7.08565C40.9038 6.74146 40.4952 6.46843 40.0455 6.28215C39.5957 6.09588 39.1137 6 38.627 6C38.1402 6 37.6582 6.09588 37.2085 6.28215C36.7588 6.46843 36.3502 6.74146 36.006 7.08565V7.08565Z" stroke="#F2994A" stroke-width="4" stroke-linecap="round" stroke-linejoin="round"/>
<path d="M38.334 30V36C38.334 37.0609 37.9126 38.0783 37.1624 38.8284C36.4123 39.5786 35.3949 40 34.334 40H12.334C11.2731 40 10.2557 39.5786 9.50556 38.8284C8.75541 38.0783 8.33398 37.0609 8.33398 36V14C8.33398 12.9391 8.75541 11.9217 9.50556 11.1716C10.2557 10.4214 11.2731 10 12.334 10H18.334" stroke="#F2994A" stroke-width="4" stroke-linecap="round" stroke-linejoin="round"/>
</svg>
