<svg width="49" height="48" viewBox="0 0 49 48" fill="none" xmlns="http://www.w3.org/2000/svg">
<path d="M8.33398 12H40.334L37.174 40.44C37.0657 41.4188 36.6001 42.3232 35.8665 42.98C35.1329 43.6369 34.1827 44.0001 33.198 44H15.47C14.4853 44.0001 13.5351 43.6369 12.8015 42.98C12.0679 42.3232 11.6023 41.4188 11.494 40.44L8.33398 12Z" stroke="#F44D4D" stroke-width="4" stroke-linecap="round" stroke-linejoin="round"/>
<path d="M15.024 6.294C15.3475 5.60794 15.8594 5.02799 16.5 4.62182C17.1406 4.21565 17.8835 3.99999 18.642 4H30.026C30.7848 3.99961 31.5281 4.21509 32.1691 4.62129C32.8101 5.02748 33.3223 5.60763 33.646 6.294L36.334 12H12.334L15.024 6.294Z" stroke="#F44D4D" stroke-width="4" stroke-linecap="round" stroke-linejoin="round"/>
<path d="M4.33398 12H44.334" stroke="#F44D4D" stroke-width="4" stroke-linecap="round" stroke-linejoin="round"/>
<path d="M20.334 22V32" stroke="#F44D4D" stroke-width="2" stroke-linecap="round" stroke-linejoin="round"/>
<path d="M28.334 22V32" stroke="#F44D4D" stroke-width="2" stroke-linecap="round" stroke-linejoin="round"/>
</svg>
