<svg width="49" height="48" viewBox="0 0 49 48" fill="none" xmlns="http://www.w3.org/2000/svg">
<path d="M28.334 38C35.876 38 39.648 38 41.99 35.656C44.334 33.314 44.334 29.542 44.334 22C44.334 14.458 44.334 10.686 41.99 8.344C39.648 6 35.876 6 28.334 6H20.334C12.792 6 9.01998 6 6.67798 8.344C4.33398 10.686 4.33398 14.458 4.33398 22C4.33398 29.542 4.33398 33.314 6.67798 35.656C7.98398 36.964 9.73398 37.542 12.334 37.796" stroke="#EB5757" stroke-width="4" stroke-linecap="round" stroke-linejoin="round"/>
<path d="M30.747 13.5866C30.5608 13.4001 30.3395 13.2523 30.0959 13.1516C29.8524 13.051 29.5913 12.9994 29.3278 13C29.0642 13.0006 28.8034 13.0532 28.5603 13.1549C28.3171 13.2566 28.0965 13.4053 27.911 13.5926L18.811 22.7866C18.2601 23.343 17.8846 24.0488 17.731 24.8166L17.371 26.6086C17.3063 26.9316 17.3223 27.2655 17.4177 27.5808C17.5131 27.8961 17.6849 28.1829 17.9178 28.4158C18.1507 28.6487 18.4376 28.8205 18.7528 28.9159C19.0681 29.0113 19.4021 29.0273 19.725 28.9626L21.517 28.6026C22.2848 28.449 22.9906 28.0735 23.547 27.5226L32.741 18.4226C32.9283 18.2371 33.077 18.0165 33.1787 17.7734C33.2804 17.5302 33.333 17.2694 33.3336 17.0058C33.3342 16.7423 33.2826 16.4812 33.182 16.2377C33.0813 15.9941 32.9335 15.7728 32.747 15.5866L30.747 13.5866V13.5866Z" stroke="#EB5757" stroke-width="4" stroke-linecap="round" stroke-linejoin="round"/>
<path d="M25.334 19L27.334 21" stroke="#EB5757" stroke-width="4" stroke-linecap="round" stroke-linejoin="round"/>
<path d="M28.3345 38C25.8625 38 23.1385 39 20.6525 40.29C16.6565 42.364 14.6585 43.402 13.6745 42.74C12.6905 42.08 12.8765 40.03 13.2505 35.932L13.3345 35" stroke="#EB5757" stroke-width="4" stroke-linecap="round" stroke-linejoin="round"/>
</svg>
