<svg width="64" height="65" viewBox="0 0 64 65" fill="none" xmlns="http://www.w3.org/2000/svg">
<path d="M32 29.5352H24M32 21.5352V29.5352V21.5352ZM32 29.5352V37.5352V29.5352ZM32 29.5352H40H32Z" stroke="url(#paint0_linear)" stroke-width="8" stroke-linecap="round" stroke-linejoin="round"/>
<path d="M37.3335 50.8698C47.3895 50.8698 52.4188 50.8698 55.5415 47.7445C58.6668 44.6218 58.6668 39.5925 58.6668 29.5365C58.6668 19.4805 58.6668 14.4511 55.5415 11.3285C52.4188 8.20312 47.3895 8.20313 37.3335 8.20313H26.6668C16.6108 8.20313 11.5815 8.20312 8.45883 11.3285C5.3335 14.4511 5.3335 19.4805 5.3335 29.5365C5.3335 39.5925 5.3335 44.6218 8.45883 47.7445C10.2002 49.4885 12.5335 50.2591 16.0002 50.5978" stroke="url(#paint1_linear)" stroke-width="8" stroke-linecap="round" stroke-linejoin="round"/>
<path d="M37.3335 50.8711C34.0375 50.8711 30.4055 52.2044 27.0908 53.9244C21.7628 56.6898 19.0988 58.0738 17.7868 57.1911C16.4748 56.3111 16.7228 53.5778 17.2215 48.1138L17.3335 46.8711" stroke="url(#paint2_linear)" stroke-width="8" stroke-linecap="round" stroke-linejoin="round"/>
<defs>
<linearGradient id="paint0_linear" x1="32" y1="21.5352" x2="32" y2="37.5352" gradientUnits="userSpaceOnUse">
<stop stop-color="#423EE0"/>
<stop offset="1" stop-color="#812DE1"/>
</linearGradient>
<linearGradient id="paint1_linear" x1="32.0002" y1="8.20312" x2="32.0002" y2="50.8698" gradientUnits="userSpaceOnUse">
<stop stop-color="#423EE0"/>
<stop offset="1" stop-color="#812DE1"/>
</linearGradient>
<linearGradient id="paint2_linear" x1="27.0767" y1="46.8711" x2="27.0767" y2="57.4558" gradientUnits="userSpaceOnUse">
<stop stop-color="#423EE0"/>
<stop offset="1" stop-color="#812DE1"/>
</linearGradient>
</defs>
</svg>
